<svg xmlns="http://www.w3.org/2000/svg" style="display:none">

  <symbol id="ei-school" viewBox="0 0 32 32">
    <rect x="3" y="12" width="26" height="19" rx="2" fill="#4e80de" stroke="#2b52a0" stroke-width="1.2"/>
    <polygon points="1.5,13 16,3 30.5,13" fill="#e84545" stroke="#b52e2e" stroke-width="1.2"/>
    <rect x="13" y="22" width="6" height="9" rx="1" fill="#7a5c40" stroke="#5a3e28" stroke-width="0.8"/>
    <circle cx="15.8" cy="26.5" r="0.7" fill="#ddc89a"/>
    <rect x="5.5" y="14.5" width="5" height="4" rx="1" fill="#b8dff5" stroke="#4e80de" stroke-width="0.6"/>
    <rect x="21.5" y="14.5" width="5" height="4" rx="1" fill="#b8dff5" stroke="#4e80de" stroke-width="0.6"/>
    <rect x="15.4" y="0.5" width="1.2" height="3.8" fill="#777" rx="0.4"/>
    <polygon points="16.6,0.6 21.5,2.2 16.6,4" fill="#f5a623" stroke="#d4861e" stroke-width="0.5"/>
  </symbol>

  <symbol id="ei-home" viewBox="0 0 32 32">
    <polygon points="1.5,15 16,3 30.5,15" fill="#e84545" stroke="#b52e2e" stroke-width="1.2"/>
    <rect x="4.5" y="14" width="23" height="17" rx="2" fill="#f5a623" stroke="#c17d12" stroke-width="1.2"/>
    <rect x="13" y="22" width="6" height="9" rx="1" fill="#7a5c40" stroke="#5a3e28" stroke-width="0.8"/>
    <rect x="6" y="17" width="5.5" height="5" rx="1" fill="#b8dff5" stroke="#4e80de" stroke-width="0.7"/>
    <rect x="20.5" y="17" width="5.5" height="5" rx="1" fill="#b8dff5" stroke="#4e80de" stroke-width="0.7"/>
  </symbol>

  <symbol id="ei-people" viewBox="0 0 32 32">
    <circle cx="10" cy="10" r="5.5" fill="#fcd9b6" stroke="#e0a876" stroke-width="1.2"/>
    <path d="M3,29 Q3,20 10,20 Q17,20 17,29" fill="#5b8dee" stroke="#2b52a0" stroke-width="1.2"/>
    <circle cx="22" cy="10" r="5.5" fill="#fcd9b6" stroke="#e0a876" stroke-width="1.2"/>
    <path d="M15,29 Q15,20 22,20 Q29,20 29,29" fill="#ec4899" stroke="#be185d" stroke-width="1.2"/>
  </symbol>

  <symbol id="ei-clipboard" viewBox="0 0 32 32">
    <rect x="5" y="4" width="22" height="27" rx="2" fill="#fff" stroke="#aaa" stroke-width="1.2"/>
    <rect x="5" y="4" width="22" height="5" rx="2" fill="#e0e0e0" stroke="#aaa" stroke-width="1.2"/>
    <rect x="12" y="2" width="8" height="4" rx="2" fill="#777" stroke="#555" stroke-width="1"/>
    <rect x="8" y="13" width="16" height="1.5" rx="0.7" fill="#ccc"/>
    <rect x="8" y="17" width="16" height="1.5" rx="0.7" fill="#ccc"/>
    <rect x="8" y="21" width="12" height="1.5" rx="0.7" fill="#ccc"/>
    <rect x="8" y="25" width="10" height="1.5" rx="0.7" fill="#f59e0b"/>
  </symbol>

  <symbol id="ei-books" viewBox="0 0 32 32">
    <rect x="2" y="20" width="8" height="11" rx="1" fill="#e84545" stroke="#b52e2e" stroke-width="1"/>
    <rect x="3" y="20" width="1.5" height="11" rx="0.5" fill="#b52e2e"/>
    <rect x="11" y="16" width="8" height="15" rx="1" fill="#4e80de" stroke="#2b52a0" stroke-width="1"/>
    <rect x="12" y="16" width="1.5" height="15" rx="0.5" fill="#2b52a0"/>
    <rect x="20" y="12" width="10" height="19" rx="1" fill="#22c55e" stroke="#15803d" stroke-width="1"/>
    <rect x="21" y="12" width="1.5" height="19" rx="0.5" fill="#15803d"/>
    <rect x="2" y="18" width="28" height="2.5" rx="1" fill="#7a5c40" stroke="#5a3e28" stroke-width="0.8"/>
  </symbol>

  <symbol id="ei-camera" viewBox="0 0 32 32">
    <rect x="2" y="9" width="28" height="20" rx="3" fill="#333" stroke="#111" stroke-width="1.2"/>
    <rect x="7" y="6" width="8" height="4" rx="1.5" fill="#444" stroke="#111" stroke-width="1"/>
    <circle cx="16" cy="19" r="7" fill="#555" stroke="#111" stroke-width="1.2"/>
    <circle cx="16" cy="19" r="5" fill="#1a1a1a" stroke="#333" stroke-width="0.8"/>
    <circle cx="16" cy="19" r="3.5" fill="#0d0d0d"/>
    <circle cx="14" cy="17" r="1.2" fill="#fff" opacity="0.35"/>
    <rect x="22" y="12" width="4" height="3" rx="1" fill="#f5a623"/>
    <circle cx="6" cy="12" r="1.5" fill="#e84545"/>
  </symbol>

  <symbol id="ei-chat" viewBox="0 0 32 32">
    <rect x="2" y="3" width="25" height="19" rx="4" fill="#5b8dee" stroke="#2b52a0" stroke-width="1.2"/>
    <polygon points="6,22 2,29 13,22" fill="#5b8dee" stroke="#2b52a0" stroke-width="1"/>
    <circle cx="9" cy="12.5" r="2" fill="#fff" opacity="0.9"/>
    <circle cx="16" cy="12.5" r="2" fill="#fff" opacity="0.9"/>
    <circle cx="23" cy="12.5" r="2" fill="#fff" opacity="0.9"/>
  </symbol>

  <symbol id="ei-heart-blue" viewBox="0 0 32 32">
    <path d="M16,28 L4,16 Q1,11 5,7 Q9,3 12,5 Q14,6 16,9 Q18,6 20,5 Q23,3 27,7 Q31,11 28,16 Z" fill="#3b82f6" stroke="#1d4ed8" stroke-width="1.2"/>
    <path d="M10,9 Q8,8 7,10" stroke="#93c5fd" stroke-width="1.5" stroke-linecap="round" fill="none"/>
  </symbol>

  <symbol id="ei-heart-green" viewBox="0 0 32 32">
    <path d="M16,28 L4,16 Q1,11 5,7 Q9,3 12,5 Q14,6 16,9 Q18,6 20,5 Q23,3 27,7 Q31,11 28,16 Z" fill="#22c55e" stroke="#15803d" stroke-width="1.2"/>
    <path d="M10,9 Q8,8 7,10" stroke="#86efac" stroke-width="1.5" stroke-linecap="round" fill="none"/>
  </symbol>

  <symbol id="ei-heart-pink" viewBox="0 0 32 32">
    <path d="M16,28 L4,16 Q1,11 5,7 Q9,3 12,5 Q14,6 16,9 Q18,6 20,5 Q23,3 27,7 Q31,11 28,16 Z" fill="#ec4899" stroke="#be185d" stroke-width="1.2"/>
    <path d="M10,9 Q8,8 7,10" stroke="#fbcfe8" stroke-width="1.5" stroke-linecap="round" fill="none"/>
  </symbol>

  <symbol id="ei-heart-red" viewBox="0 0 32 32">
    <path d="M16,28 L4,16 Q1,11 5,7 Q9,3 12,5 Q14,6 16,9 Q18,6 20,5 Q23,3 27,7 Q31,11 28,16 Z" fill="#ef4444" stroke="#b91c1c" stroke-width="1.2"/>
    <path d="M10,9 Q8,8 7,10" stroke="#fca5a5" stroke-width="1.5" stroke-linecap="round" fill="none"/>
  </symbol>

  <symbol id="ei-sparkle" viewBox="0 0 32 32">
    <path d="M16,2 L17.5,12 L28,13.5 L17.5,15 L16,25 L14.5,15 L4,13.5 L14.5,12 Z" fill="#f5a623" stroke="#d4861e" stroke-width="0.8"/>
    <path d="M26,2 L26.8,6 L31,6.8 L26.8,7.6 L26,11 L25.2,7.6 L21,6.8 L25.2,6 Z" fill="#f5a623" stroke="#d4861e" stroke-width="0.5"/>
    <path d="M5,22 L5.5,24.8 L8.5,25.3 L5.5,25.8 L5,28 L4.5,25.8 L1.5,25.3 L4.5,24.8 Z" fill="#f5a623" stroke="#d4861e" stroke-width="0.4"/>
  </symbol>

  <symbol id="ei-wave" viewBox="0 0 32 32">
    <ellipse cx="18" cy="8" rx="2.5" ry="7" fill="#fcd9b6" stroke="#e0a876" stroke-width="1" transform="rotate(-15,18,8)"/>
    <ellipse cx="23" cy="9" rx="2" ry="6.5" fill="#fcd9b6" stroke="#e0a876" stroke-width="1" transform="rotate(5,23,9)"/>
    <ellipse cx="27" cy="11" rx="2" ry="5.5" fill="#fcd9b6" stroke="#e0a876" stroke-width="1" transform="rotate(15,27,11)"/>
    <ellipse cx="13" cy="9.5" rx="2" ry="6" fill="#fcd9b6" stroke="#e0a876" stroke-width="1" transform="rotate(-25,13,9.5)"/>
    <path d="M9,14 Q8,22 13,27 Q17,30 22,29 Q28,27 29,20 L27.5,11" fill="#fcd9b6" stroke="#e0a876" stroke-width="1.2"/>
  </symbol>

  <symbol id="ei-muscle" viewBox="0 0 32 32">
    <path d="M8,28 Q6,24 8,20 Q10,15 16,14 Q20,13 22,10 Q25,6 24,3 Q27,4 28,8 Q30,14 26,19 Q23,23 24,28" fill="#fcd9b6" stroke="#e0a876" stroke-width="1.2" stroke-linejoin="round"/>
  </symbol>

  <symbol id="ei-star-glow" viewBox="0 0 32 32">
    <circle cx="16" cy="16" r="12" fill="#f5a623" opacity="0.2"/>
    <polygon points="16,4 18.9,12.6 28,12.6 20.5,17.9 23.5,26.4 16,21.1 8.5,26.4 11.5,17.9 4,12.6 13.1,12.6" fill="#f5a623" stroke="#d4861e" stroke-width="0.8"/>
  </symbol>

  <symbol id="ei-star" viewBox="0 0 32 32">
    <polygon points="16,3 19.5,12 29.5,12 21.5,18.5 24.5,27.5 16,21 7.5,27.5 10.5,18.5 2.5,12 12.5,12" fill="#f5a623" stroke="#d4861e" stroke-width="1"/>
  </symbol>

  <symbol id="ei-teacher" viewBox="0 0 32 32">
    <circle cx="16" cy="8" r="5.5" fill="#fcd9b6" stroke="#e0a876" stroke-width="1.2"/>
    <path d="M8,30 Q7,22 16,21 Q25,22 24,30" fill="#4e80de" stroke="#2b52a0" stroke-width="1.2"/>
    <rect x="2" y="14" width="12" height="8" rx="1.5" fill="#fff" stroke="#ccc" stroke-width="1"/>
    <line x1="4" y1="17" x2="12" y2="17" stroke="#5b8dee" stroke-width="1"/>
    <line x1="4" y1="19.5" x2="10" y2="19.5" stroke="#5b8dee" stroke-width="1"/>
    <line x1="1.5" y1="14" x2="1.5" y2="22" stroke="#888" stroke-width="1.2" stroke-linecap="round"/>
  </symbol>

  <symbol id="ei-crown" viewBox="0 0 32 32">
    <path d="M2,24 L5,12 L11,19 L16,8 L21,19 L27,12 L30,24 Z" fill="#f5a623" stroke="#d4861e" stroke-width="1.2" stroke-linejoin="round"/>
    <rect x="2" y="24" width="28" height="5" rx="2" fill="#d4861e" stroke="#b8620d" stroke-width="1"/>
    <circle cx="16" cy="11" r="2.5" fill="#e84545" stroke="#b52e2e" stroke-width="0.8"/>
    <circle cx="6" cy="22" r="1.8" fill="#ec4899" stroke="#be185d" stroke-width="0.7"/>
    <circle cx="26" cy="22" r="1.8" fill="#3b82f6" stroke="#1d4ed8" stroke-width="0.7"/>
  </symbol>

  <symbol id="ei-medal" viewBox="0 0 32 32">
    <path d="M14,14 L10,2 L22,2 L18,14" fill="#a0a0a0" stroke="#777" stroke-width="1"/>
    <rect x="9" y="1.5" width="14" height="3" rx="1" fill="#5b8dee" stroke="#2b52a0" stroke-width="0.8"/>
    <circle cx="16" cy="22" r="9" fill="#c0c0c0" stroke="#909090" stroke-width="1.5"/>
    <circle cx="16" cy="22" r="7" fill="#d8d8d8" stroke="#aaa" stroke-width="0.5"/>
    <text x="16" y="26" font-size="9" font-weight="bold" fill="#888" text-anchor="middle" font-family="serif">2</text>
  </symbol>

  <symbol id="ei-memo" viewBox="0 0 32 32">
    <rect x="4" y="4" width="18" height="24" rx="2" fill="#fff" stroke="#ccc" stroke-width="1.2"/>
    <rect x="4" y="4" width="18" height="4" rx="2" fill="#5b8dee" stroke="#2b52a0" stroke-width="1"/>
    <rect x="7" y="12" width="12" height="1.5" rx="0.7" fill="#ddd"/>
    <rect x="7" y="16" width="12" height="1.5" rx="0.7" fill="#ddd"/>
    <rect x="7" y="20" width="8" height="1.5" rx="0.7" fill="#ddd"/>
    <rect x="22" y="16" width="3.5" height="12" rx="1" fill="#f5e0a0" stroke="#d4c070" stroke-width="0.8" transform="rotate(-45,23.75,22)"/>
    <polygon points="24.8,25.2 27.5,27.8 22.2,27.8" fill="#e84545" transform="rotate(-45,24.9,26.5)"/>
  </symbol>

  <symbol id="ei-money" viewBox="0 0 32 32">
    <ellipse cx="16" cy="22" rx="12" ry="9" fill="#f5a623" stroke="#d4861e" stroke-width="1.2"/>
    <path d="M12,14 Q11,10 16,10 Q21,10 20,14" fill="#f5a623" stroke="#d4861e" stroke-width="1.2"/>
    <rect x="13" y="7" width="6" height="4" rx="2" fill="#d4861e" stroke="#b8620d" stroke-width="0.8"/>
    <text x="16" y="26" font-size="10" font-weight="bold" fill="#fff" text-anchor="middle" font-family="serif">$</text>
  </symbol>

  <symbol id="ei-shield" viewBox="0 0 32 32">
    <path d="M16,2 L28,7 L28,18 Q28,27 16,30 Q4,27 4,18 L4,7 Z" fill="#5b8dee" stroke="#2b52a0" stroke-width="1.2" stroke-linejoin="round"/>
    <path d="M16,5 L25,9 L25,18 Q25,24 16,27 Q7,24 7,18 L7,9 Z" fill="#7aaaf0"/>
    <path d="M11,15 L15,19 L22,11" stroke="#fff" stroke-width="2.5" stroke-linecap="round" stroke-linejoin="round" fill="none"/>
  </symbol>

  <symbol id="ei-broom" viewBox="0 0 32 32">
    <rect x="14" y="2" width="3" height="20" rx="1.5" fill="#8b6e52" stroke="#5a3e28" stroke-width="0.8" transform="rotate(20,15.5,12)"/>
    <path d="M8,22 Q10,18 14,17 Q18,16 22,18 L24,28 Q20,30 16,30 Q12,30 9,28 Z" fill="#e84545" stroke="#b52e2e" stroke-width="1.2"/>
    <line x1="14" y1="21" x2="14" y2="29" stroke="#c23333" stroke-width="0.8" opacity="0.6"/>
    <line x1="18" y1="21" x2="18.5" y2="29" stroke="#c23333" stroke-width="0.8" opacity="0.6"/>
  </symbol>

  <symbol id="ei-calendar" viewBox="0 0 32 32">
    <rect x="2" y="7" width="28" height="23" rx="3" fill="#fff" stroke="#ddd" stroke-width="1.2"/>
    <rect x="2" y="7" width="28" height="8" rx="3" fill="#e84545" stroke="#b52e2e" stroke-width="1.2"/>
    <rect x="2" y="12" width="28" height="3" fill="#e84545"/>
    <rect x="8" y="3" width="3" height="7" rx="1.5" fill="#777" stroke="#555" stroke-width="0.8"/>
    <rect x="21" y="3" width="3" height="7" rx="1.5" fill="#777" stroke="#555" stroke-width="0.8"/>
    <rect x="6" y="20" width="4" height="3" rx="0.8" fill="#5b8dee"/>
    <rect x="14" y="20" width="4" height="3" rx="0.8" fill="#5b8dee"/>
    <rect x="22" y="20" width="4" height="3" rx="0.8" fill="#ddd"/>
    <rect x="6" y="26" width="4" height="3" rx="0.8" fill="#ddd"/>
    <rect x="14" y="26" width="4" height="3" rx="0.8" fill="#f5a623"/>
  </symbol>

  <symbol id="ei-pillars" viewBox="0 0 32 32">
    <rect x="2" y="2" width="28" height="3.5" rx="1" fill="#c8b89a" stroke="#a09070" stroke-width="0.8"/>
    <rect x="2" y="27" width="28" height="3.5" rx="1" fill="#c8b89a" stroke="#a09070" stroke-width="0.8"/>
    <rect x="5" y="5.5" width="5" height="21.5" rx="1" fill="#d8cbb8" stroke="#a09070" stroke-width="0.8"/>
    <rect x="13.5" y="5.5" width="5" height="21.5" rx="1" fill="#d8cbb8" stroke="#a09070" stroke-width="0.8"/>
    <rect x="22" y="5.5" width="5" height="21.5" rx="1" fill="#d8cbb8" stroke="#a09070" stroke-width="0.8"/>
  </symbol>

  <symbol id="ei-swimmer" viewBox="0 0 32 32">
    <path d="M3,22 Q7,19 11,22 Q15,25 19,22 Q23,19 29,22" fill="none" stroke="#5b8dee" stroke-width="2.5" stroke-linecap="round"/>
    <path d="M3,26 Q7,23 11,26 Q15,29 19,26 Q23,23 29,26" fill="none" stroke="#3b82f6" stroke-width="2" stroke-linecap="round" opacity="0.6"/>
    <circle cx="22" cy="11" r="4" fill="#fcd9b6" stroke="#e0a876" stroke-width="1"/>
    <path d="M10,14 Q14,10 20,12 L23,14 Q22,17 18,17 Q14,18 10,14Z" fill="#4e80de" stroke="#2b52a0" stroke-width="1"/>
    <path d="M10,14 L5,18" stroke="#fcd9b6" stroke-width="2.5" stroke-linecap="round"/>
  </symbol>

  <symbol id="ei-trophy" viewBox="0 0 32 32">
    <rect x="11" y="26" width="10" height="3.5" rx="1" fill="#c8b89a" stroke="#a09070" stroke-width="0.8"/>
    <rect x="8" y="24" width="16" height="3" rx="1" fill="#d4861e" stroke="#b8620d" stroke-width="0.8"/>
    <path d="M9,8 Q9,22 16,24 Q23,22 23,8 Z" fill="#f5a623" stroke="#d4861e" stroke-width="1.2"/>
    <rect x="9" y="6" width="14" height="3" rx="1" fill="#f5a623" stroke="#d4861e" stroke-width="1"/>
    <path d="M9,10 Q5,10 5,16 Q5,20 9,20" fill="none" stroke="#f5a623" stroke-width="3" stroke-linecap="round"/>
    <path d="M23,10 Q27,10 27,16 Q27,20 23,20" fill="none" stroke="#f5a623" stroke-width="3" stroke-linecap="round"/>
  </symbol>

  <symbol id="ei-numbers" viewBox="0 0 32 32">
    <rect x="3" y="3" width="26" height="26" rx="3" fill="#f0f0f0" stroke="#ccc" stroke-width="1.2"/>
    <rect x="6" y="6" width="6" height="5" rx="1.5" fill="#5b8dee" stroke="#2b52a0" stroke-width="0.7"/>
    <rect x="13" y="6" width="6" height="5" rx="1.5" fill="#5b8dee" stroke="#2b52a0" stroke-width="0.7"/>
    <rect x="20" y="6" width="6" height="5" rx="1.5" fill="#5b8dee" stroke="#2b52a0" stroke-width="0.7"/>
    <rect x="6" y="13" width="6" height="5" rx="1.5" fill="#22c55e" stroke="#15803d" stroke-width="0.7"/>
    <rect x="13" y="13" width="6" height="5" rx="1.5" fill="#22c55e" stroke="#15803d" stroke-width="0.7"/>
    <rect x="20" y="13" width="6" height="5" rx="1.5" fill="#22c55e" stroke="#15803d" stroke-width="0.7"/>
    <rect x="6" y="20" width="6" height="5" rx="1.5" fill="#e84545" stroke="#b52e2e" stroke-width="0.7"/>
    <rect x="13" y="20" width="6" height="5" rx="1.5" fill="#f5a623" stroke="#d4861e" stroke-width="0.7"/>
    <rect x="20" y="20" width="6" height="5" rx="1.5" fill="#e84545" stroke="#b52e2e" stroke-width="0.7"/>
  </symbol>

  <symbol id="ei-book-open" viewBox="0 0 32 32">
    <path d="M16,6 Q10,5 4,7 L4,27 Q10,25 16,26 Z" fill="#fff" stroke="#ccc" stroke-width="1.2"/>
    <path d="M16,6 Q22,5 28,7 L28,27 Q22,25 16,26 Z" fill="#fff" stroke="#ccc" stroke-width="1.2"/>
    <line x1="16" y1="6" x2="16" y2="26" stroke="#aaa" stroke-width="1.5"/>
    <path d="M3,7 Q3,5 6,5 L16,6" fill="#4e80de" stroke="#2b52a0" stroke-width="1"/>
    <path d="M29,7 Q29,5 26,5 L16,6" fill="#4e80de" stroke="#2b52a0" stroke-width="1"/>
    <line x1="7" y1="12" x2="14" y2="13" stroke="#ddd" stroke-width="1"/>
    <line x1="7" y1="16" x2="14" y2="17" stroke="#ddd" stroke-width="1"/>
    <line x1="18" y1="12" x2="25" y2="13" stroke="#ddd" stroke-width="1"/>
    <line x1="18" y1="16" x2="25" y2="17" stroke="#ddd" stroke-width="1"/>
  </symbol>

  <symbol id="ei-microscope" viewBox="0 0 32 32">
    <rect x="11" y="27" width="10" height="2.5" rx="1" fill="#888" stroke="#555" stroke-width="0.8"/>
    <rect x="13" y="23" width="6" height="5" rx="1" fill="#999" stroke="#666" stroke-width="0.8"/>
    <rect x="15" y="4" width="4" height="20" rx="1" fill="#ccc" stroke="#888" stroke-width="0.8" transform="rotate(-10,17,14)"/>
    <rect x="16" y="1.5" width="4" height="5" rx="1" fill="#5b8dee" stroke="#2b52a0" stroke-width="0.8" transform="rotate(-10,18,4)"/>
    <circle cx="23" cy="23" r="6" fill="#b8dff5" stroke="#4e80de" stroke-width="1.2"/>
    <circle cx="23" cy="23" r="3.5" fill="#5b8dee" stroke="#2b52a0" stroke-width="0.8"/>
    <line x1="8" y1="23" x2="17" y2="23" stroke="#aaa" stroke-width="1.5" stroke-linecap="round"/>
  </symbol>

  <symbol id="ei-map" viewBox="0 0 32 32">
    <path d="M3,5 L11,2 L21,6 L29,3 L29,26 L21,29 L11,25 L3,28 Z" fill="#c8e6c9" stroke="#888" stroke-width="1.2" stroke-linejoin="round"/>
    <line x1="11" y1="2" x2="11" y2="25" stroke="#aaa" stroke-width="1" stroke-dasharray="2,1"/>
    <line x1="21" y1="6" x2="21" y2="29" stroke="#aaa" stroke-width="1" stroke-dasharray="2,1"/>
    <circle cx="17" cy="15" r="2" fill="#e84545" stroke="#b52e2e" stroke-width="0.7"/>
  </symbol>

  <symbol id="ei-pray" viewBox="0 0 32 32">
    <path d="M16,4 Q12,8 10,14 Q9,20 10,26 Q13,29 16,29" fill="#fcd9b6" stroke="#e0a876" stroke-width="1.2"/>
    <path d="M16,4 Q20,8 22,14 Q23,20 22,26 Q19,29 16,29" fill="#fcd9b6" stroke="#e0a876" stroke-width="1.2"/>
    <path d="M10,26 Q13,30 16,29 Q19,30 22,26" fill="#f4b888" stroke="#e0a876" stroke-width="0.8"/>
  </symbol>

  <symbol id="ei-bulb" viewBox="0 0 32 32">
    <circle cx="16" cy="13" r="9" fill="#f5e0a0" stroke="#d4c070" stroke-width="1.2"/>
    <path d="M12,20 Q11,23 13,25 L19,25 Q21,23 20,20" fill="#f5e0a0" stroke="#d4c070" stroke-width="1"/>
    <rect x="13" y="25" width="6" height="2" rx="0.5" fill="#ccc" stroke="#aaa" stroke-width="0.6"/>
    <rect x="13.5" y="27" width="5" height="2" rx="0.5" fill="#ccc" stroke="#aaa" stroke-width="0.6"/>
    <circle cx="16" cy="13" r="4" fill="#fffde7" stroke="#f5e0a0" stroke-width="0.5"/>
  </symbol>

  <symbol id="ei-couple" viewBox="0 0 32 32">
    <circle cx="10" cy="8" r="4.5" fill="#fcd9b6" stroke="#e0a876" stroke-width="1"/>
    <path d="M4,28 Q3,20 10,19 Q17,20 16,28" fill="#5b8dee" stroke="#2b52a0" stroke-width="1"/>
    <circle cx="22" cy="8" r="4.5" fill="#fcd9b6" stroke="#e0a876" stroke-width="1"/>
    <path d="M16,28 Q15,20 22,19 Q29,20 28,28" fill="#ec4899" stroke="#be185d" stroke-width="1"/>
  </symbol>

  <symbol id="ei-sleep" viewBox="0 0 32 32">
    <circle cx="16" cy="17" r="13" fill="#fcd9b6" stroke="#e0a876" stroke-width="1.2"/>
    <path d="M10,17 Q12,19 16,19 Q20,19 22,17" stroke="#333" stroke-width="1.5" stroke-linecap="round" fill="none"/>
    <line x1="11" y1="13" x2="13" y2="13" stroke="#333" stroke-width="2" stroke-linecap="round"/>
    <line x1="19" y1="13" x2="21" y2="13" stroke="#333" stroke-width="2" stroke-linecap="round"/>
    <text x="26" y="8" font-size="6" fill="#8b8" font-family="sans-serif" font-weight="bold">Z</text>
    <text x="23" y="4" font-size="4" fill="#8b8" font-family="sans-serif" font-weight="bold">Z</text>
  </symbol>

  <symbol id="ei-salad" viewBox="0 0 32 32">
    <path d="M4,17 Q4,29 16,30 Q28,29 28,17 Z" fill="#f5e0a0" stroke="#d4c070" stroke-width="1.2"/>
    <path d="M4,17 Q4,12 16,11 Q28,12 28,17" fill="#e0e0e0" stroke="#bbb" stroke-width="1.2"/>
    <circle cx="12" cy="19" r="3" fill="#22c55e" stroke="#15803d" stroke-width="0.7"/>
    <circle cx="20" cy="19" r="3" fill="#22c55e" stroke="#15803d" stroke-width="0.7"/>
    <circle cx="16" cy="16" r="2.5" fill="#22c55e" stroke="#15803d" stroke-width="0.7"/>
    <circle cx="10" cy="23" r="2" fill="#e84545" stroke="#b52e2e" stroke-width="0.7"/>
    <circle cx="22" cy="23" r="2" fill="#f5a623" stroke="#d4861e" stroke-width="0.7"/>
  </symbol>

  <symbol id="ei-megaphone" viewBox="0 0 32 32">
    <path d="M22,7 L6,12 L6,21 L22,26 Z" fill="#f5a623" stroke="#d4861e" stroke-width="1.2" stroke-linejoin="round"/>
    <rect x="3" y="12" width="4" height="9" rx="1" fill="#d4861e" stroke="#b8620d" stroke-width="0.8"/>
    <circle cx="26" cy="16.5" r="5.5" fill="#e84545" stroke="#b52e2e" stroke-width="1.2"/>
    <circle cx="26" cy="16.5" r="3" fill="#c23333"/>
    <rect x="6" y="21" width="4" height="5" rx="0.8" fill="#8b6e52" stroke="#5a3e28" stroke-width="0.8"/>
  </symbol>

  <symbol id="ei-pin" viewBox="0 0 32 32">
    <circle cx="16" cy="11" r="9" fill="#e84545" stroke="#b52e2e" stroke-width="1.2"/>
    <circle cx="16" cy="11" r="5.5" fill="#c23333"/>
    <circle cx="13.5" cy="8.5" r="2" fill="#fff" opacity="0.35"/>
    <rect x="15" y="20" width="2" height="10" rx="1" fill="#888" stroke="#555" stroke-width="0.5"/>
  </symbol>

  <symbol id="ei-cal-spiral" viewBox="0 0 32 32">
    <rect x="3" y="7" width="26" height="23" rx="2.5" fill="#fff" stroke="#ddd" stroke-width="1.2"/>
    <rect x="3" y="7" width="26" height="8" rx="2.5" fill="#5b8dee" stroke="#2b52a0" stroke-width="1.2"/>
    <rect x="3" y="12" width="26" height="3" fill="#5b8dee"/>
    <circle cx="9" cy="7" r="3" fill="#fff" stroke="#2b52a0" stroke-width="1.2"/>
    <circle cx="16" cy="7" r="3" fill="#fff" stroke="#2b52a0" stroke-width="1.2"/>
    <circle cx="23" cy="7" r="3" fill="#fff" stroke="#2b52a0" stroke-width="1.2"/>
    <rect x="6" y="19" width="4" height="3" rx="0.8" fill="#ddd"/>
    <rect x="14" y="19" width="4" height="3" rx="0.8" fill="#e84545"/>
    <rect x="22" y="19" width="4" height="3" rx="0.8" fill="#ddd"/>
    <rect x="6" y="25" width="4" height="3" rx="0.8" fill="#ddd"/>
    <rect x="14" y="25" width="4" height="3" rx="0.8" fill="#ddd"/>
  </symbol>

  <symbol id="ei-love-letter" viewBox="0 0 32 32">
    <rect x="2" y="8" width="28" height="20" rx="2.5" fill="#fff" stroke="#f9a8c9" stroke-width="1.2"/>
    <path d="M2,10 L16,19 L30,10" fill="none" stroke="#f9a8c9" stroke-width="1.2"/>
    <path d="M16,22 L10,17 Q8,14 10,12 Q12,10 14,11 Q15,11.5 16,13 Q17,11.5 18,11 Q20,10 22,12 Q24,14 22,17 Z" fill="#ec4899" stroke="#be185d" stroke-width="0.7"/>
  </symbol>

  <symbol id="ei-rainbow" viewBox="0 0 32 32">
    <path d="M3,24 Q3,6 16,6 Q29,6 29,24" fill="none" stroke="#e84545" stroke-width="3" stroke-linecap="round"/>
    <path d="M5,24 Q5,9 16,9 Q27,9 27,24" fill="none" stroke="#f5a623" stroke-width="3" stroke-linecap="round"/>
    <path d="M7,24 Q7,12 16,12 Q25,12 25,24" fill="none" stroke="#f5e000" stroke-width="3" stroke-linecap="round"/>
    <path d="M9,24 Q9,14 16,14 Q23,14 23,24" fill="none" stroke="#22c55e" stroke-width="3" stroke-linecap="round"/>
    <path d="M11,24 Q11,16 16,16 Q21,16 21,24" fill="none" stroke="#5b8dee" stroke-width="3" stroke-linecap="round"/>
    <path d="M13,24 Q13,18 16,18 Q19,18 19,24" fill="none" stroke="#8b5cf6" stroke-width="3" stroke-linecap="round"/>
  </symbol>

  <symbol id="ei-smile" viewBox="0 0 32 32">
    <circle cx="16" cy="16" r="13.5" fill="#f5a623" stroke="#d4861e" stroke-width="1.2"/>
    <circle cx="11" cy="13" r="2" fill="#333"/>
    <circle cx="21" cy="13" r="2" fill="#333"/>
    <circle cx="11.8" cy="12.2" r="0.8" fill="#fff"/>
    <circle cx="21.8" cy="12.2" r="0.8" fill="#fff"/>
    <path d="M9,19 Q12,24 16,24 Q20,24 23,19" fill="none" stroke="#333" stroke-width="1.8" stroke-linecap="round"/>
  </symbol>

</svg>
